<!DOCTYPE svg PUBLIC "-//W3C//DTD SVG 1.1//EN" "http://www.w3.org/Graphics/SVG/1.1/DTD/svg11.dtd">
<!-- Uploaded to: SVG Repo, www.svgrepo.com, Transformed by: SVG Repo Mixer Tools -->
<svg fill="#000000" height="235px" width="235px" version="1.1" id="Layer_1" xmlns="http://www.w3.org/2000/svg" xmlns:xlink="http://www.w3.org/1999/xlink" viewBox="0 0 512.00 512.00" xml:space="preserve" transform="rotate(-45)" stroke="#000000" stroke-width="0.00512">
<g id="SVGRepo_bgCarrier" stroke-width="0"/>
<g id="SVGRepo_tracerCarrier" stroke-linecap="round" stroke-linejoin="round" stroke="#CCCCCC" stroke-width="27.648000000000003"> <g> <g> <path d="M341.12,405.333h-10.667V106.667h11.093c5.888,0,10.667-4.779,10.667-10.667c0-1.173-0.192-2.283-0.533-3.328 c-1.707-27.861-24.939-50.005-53.227-50.005C298.453,19.136,279.317,0,255.787,0c-23.531,0-42.667,19.136-42.667,42.667 c-29.397,0-53.333,23.936-53.333,53.333c0,5.888,4.779,10.667,10.667,10.667h10.667v298.667h-10.667 c-5.888,0-10.667,4.779-10.667,10.667c0,29.397,23.936,53.333,53.333,53.333c0,23.531,19.136,42.667,42.667,42.667 c23.531,0,42.667-19.136,42.667-42.667c29.397,0,53.333-23.936,53.333-53.333C351.787,410.112,347.008,405.333,341.12,405.333z M202.453,106.667H309.12v0.405c-29.888,23.936-67.221,38.421-106.667,41.536V106.667z M309.099,363.051 c-29.888,23.893-67.264,38.4-106.667,41.493V361.92h0.021c0.917-0.064,1.792-0.299,2.709-0.363 c8.448-0.704,16.832-1.771,25.067-3.413c1.045-0.213,2.048-0.512,3.093-0.725c7.467-1.6,14.784-3.627,21.995-5.952 c1.749-0.576,3.52-1.109,5.248-1.707c7.765-2.752,15.36-5.888,22.741-9.472c1.429-0.683,2.773-1.472,4.181-2.197 c6.485-3.349,12.8-6.997,18.88-10.987c0.875-0.576,1.856-1.003,2.731-1.6V363.051z M309.12,234.837 c-0.683,0.555-1.387,1.067-2.069,1.6c-6.805,5.291-13.888,10.219-21.376,14.528c-0.405,0.235-0.853,0.427-1.259,0.661 c-7.424,4.203-15.189,7.851-23.147,11.051c-0.96,0.384-1.899,0.832-2.859,1.216c-7.915,3.029-16.107,5.461-24.427,7.488 c-1.493,0.363-2.987,0.725-4.501,1.067c-8.256,1.792-16.661,3.093-25.173,3.84c-0.619,0.064-1.216,0.064-1.835,0.128v-42.389 c38.613-2.752,75.541-15.36,106.667-36.395v37.205H309.12z"/> </g> </g> </g>
<g id="SVGRepo_iconCarrier"> <g> <g> <path d="M341.12,405.333h-10.667V106.667h11.093c5.888,0,10.667-4.779,10.667-10.667c0-1.173-0.192-2.283-0.533-3.328 c-1.707-27.861-24.939-50.005-53.227-50.005C298.453,19.136,279.317,0,255.787,0c-23.531,0-42.667,19.136-42.667,42.667 c-29.397,0-53.333,23.936-53.333,53.333c0,5.888,4.779,10.667,10.667,10.667h10.667v298.667h-10.667 c-5.888,0-10.667,4.779-10.667,10.667c0,29.397,23.936,53.333,53.333,53.333c0,23.531,19.136,42.667,42.667,42.667 c23.531,0,42.667-19.136,42.667-42.667c29.397,0,53.333-23.936,53.333-53.333C351.787,410.112,347.008,405.333,341.12,405.333z M202.453,106.667H309.12v0.405c-29.888,23.936-67.221,38.421-106.667,41.536V106.667z M309.099,363.051 c-29.888,23.893-67.264,38.4-106.667,41.493V361.92h0.021c0.917-0.064,1.792-0.299,2.709-0.363 c8.448-0.704,16.832-1.771,25.067-3.413c1.045-0.213,2.048-0.512,3.093-0.725c7.467-1.6,14.784-3.627,21.995-5.952 c1.749-0.576,3.52-1.109,5.248-1.707c7.765-2.752,15.36-5.888,22.741-9.472c1.429-0.683,2.773-1.472,4.181-2.197 c6.485-3.349,12.8-6.997,18.88-10.987c0.875-0.576,1.856-1.003,2.731-1.6V363.051z M309.12,234.837 c-0.683,0.555-1.387,1.067-2.069,1.6c-6.805,5.291-13.888,10.219-21.376,14.528c-0.405,0.235-0.853,0.427-1.259,0.661 c-7.424,4.203-15.189,7.851-23.147,11.051c-0.96,0.384-1.899,0.832-2.859,1.216c-7.915,3.029-16.107,5.461-24.427,7.488 c-1.493,0.363-2.987,0.725-4.501,1.067c-8.256,1.792-16.661,3.093-25.173,3.84c-0.619,0.064-1.216,0.064-1.835,0.128v-42.389 c38.613-2.752,75.541-15.36,106.667-36.395v37.205H309.12z"/> </g> </g> </g>
</svg>